<svg width="432" height="432" viewBox="0 0 432 432" fill="none" xmlns="http://www.w3.org/2000/svg">
<rect width="432" height="432" fill="#FFEECE"/>
<rect width="432" height="432" fill="url(#paint0_linear_20926_1434)"/>
<path d="M262.991 329.916C269.779 331.616 273.935 339.084 272.259 345.963L272.25 345.98C270.404 352.948 263.31 357.166 256.436 355.379C226.72 348.217 204.403 348.408 174.707 355.577C168.013 357.425 160.712 353.026 158.884 346.178L158.876 346.161C157.201 339.289 161.358 331.797 168.151 330.113C202.317 321.858 228.805 321.652 262.991 329.916Z" fill="white"/>
<path fill-rule="evenodd" clip-rule="evenodd" d="M83.5737 198.76C83.5737 158.749 118.615 126.734 157.065 126.734H157.166L216.108 126.87L275.05 126.734H275.15C313.6 126.734 348.642 158.749 348.642 198.76L348.726 240.506C348.726 288.823 301.288 316.44 258.404 310.659C239.844 308.232 227.858 306.991 216.108 306.947C204.358 306.991 192.372 308.232 173.812 310.659C130.928 316.44 83.4897 288.823 83.4897 240.506L83.5737 198.76ZM216.108 280.821C216.028 280.821 215.949 280.821 215.87 280.821V280.822C203.084 280.882 190.044 282.202 170.513 284.775C141.684 288.663 109.302 274.412 109.302 240.704L109.394 198.769C109.394 172.931 132.409 152.937 157.074 152.937H157.166L215.87 153.072V153.073L216.108 153.073L216.346 153.073V153.072L275.05 152.937H275.142C299.807 152.937 322.821 172.931 322.821 198.769L322.913 240.704C322.913 274.412 290.532 288.663 261.703 284.775C242.171 282.202 229.131 280.882 216.346 280.822V280.821C216.267 280.821 216.187 280.821 216.108 280.821Z" fill="white"/>
<rect x="168.196" y="140.975" width="26.476" height="83.8407" rx="13.238" transform="rotate(150 168.196 140.975)" fill="white"/>
<rect x="311.413" y="68.3669" width="26.476" height="83.8407" rx="13.238" transform="rotate(30 311.413 68.3669)" fill="white"/>
<ellipse cx="167.33" cy="211.779" rx="13.238" ry="13.238" fill="white"/>
<circle cx="264.409" cy="211.779" r="13.238" fill="white"/>
<defs>
<linearGradient id="paint0_linear_20926_1434" x1="0" y1="0" x2="432" y2="432" gradientUnits="userSpaceOnUse">
<stop stop-color="#98D04B"/>
<stop offset="1" stop-color="#668F2D"/>
</linearGradient>
</defs>
</svg>
